<svg width="646" height="450" viewBox="0 0 646 450" fill="none" xmlns="http://www.w3.org/2000/svg">
<path d="M128.711 450C199.796 450 257.422 445.618 257.422 440.213C257.422 434.807 199.796 430.425 128.711 430.425C57.626 430.425 0 434.807 0 440.213C0 445.618 57.626 450 128.711 450Z" fill="#E6E6E6"/>
<path d="M98.3843 99.8471C120.784 90.3082 148.683 96.352 175.929 100.547C176.183 95.4669 179.256 89.2847 176.037 85.7408C172.126 81.4354 172.486 76.9116 174.839 72.3617C180.858 60.727 172.235 48.347 163.529 38.0531C161.567 35.7382 159.087 33.9193 156.29 32.7442C153.494 31.5691 150.46 31.071 147.436 31.2902L131.308 32.4436C127.384 32.7243 123.638 34.1982 120.573 36.6682C117.508 39.1383 115.27 42.4866 114.158 46.2651C110.307 51.5088 108.246 56.7381 109.543 61.94C103.775 65.8866 102.806 70.6506 105.398 76.0211C107.596 79.4026 107.573 82.6941 105.298 85.8946C102.311 89.975 100.023 94.5247 98.5284 99.3572L98.3843 99.8471Z" fill="#2F2E41"/>
<path d="M630.692 389.018H174.16C170.1 389.018 166.207 387.403 163.336 384.529C160.465 381.655 158.853 377.756 158.853 373.691C324.345 354.435 486.728 354.435 646 373.691C646 377.756 644.387 381.655 641.517 384.529C638.646 387.403 634.752 389.018 630.692 389.018Z" fill="#2F2E41"/>
<path d="M646 374.593L158.853 373.691L215.311 278.578L215.581 278.127V68.5086C215.581 65.9643 216.082 63.4448 217.054 61.0941C218.026 58.7435 219.452 56.6076 221.249 54.8085C223.046 53.0094 225.179 51.5823 227.527 50.6087C229.875 49.6351 232.391 49.1341 234.932 49.1343H567.219C569.76 49.1341 572.277 49.6351 574.624 50.6087C576.972 51.5823 579.106 53.0094 580.903 54.8085C582.699 56.6076 584.125 58.7435 585.097 61.0941C586.07 63.4448 586.57 65.9643 586.57 68.5086V279.57L646 374.593Z" fill="#3F3D56"/>
<path d="M234.491 62.6576C232.82 62.6594 231.217 63.3249 230.036 64.508C228.854 65.6911 228.189 67.2952 228.188 68.9684V260.096C228.189 261.77 228.854 263.374 230.036 264.557C231.217 265.74 232.82 266.405 234.491 266.407H570.361C572.033 266.405 573.635 265.74 574.816 264.557C575.998 263.374 576.663 261.77 576.665 260.096V68.9684C576.663 67.2952 575.998 65.6912 574.816 64.5081C573.635 63.325 572.033 62.6595 570.361 62.6576H234.491Z" fill="white"/>
<path d="M235.898 291.651C235.382 291.651 234.876 291.8 234.441 292.079C234.007 292.358 233.661 292.756 233.444 293.225L216.047 331.09C215.858 331.502 215.775 331.955 215.806 332.407C215.838 332.86 215.982 333.297 216.227 333.679C216.471 334.061 216.807 334.375 217.205 334.593C217.602 334.811 218.048 334.925 218.501 334.925H584.344C584.804 334.925 585.257 334.807 585.659 334.583C586.062 334.358 586.4 334.034 586.642 333.642C586.884 333.25 587.022 332.802 587.042 332.342C587.063 331.881 586.966 331.423 586.76 331.011L567.85 293.146C567.627 292.695 567.282 292.317 566.855 292.053C566.428 291.788 565.936 291.649 565.434 291.651H235.898Z" fill="#2F2E41"/>
<path d="M401.075 59.5021C403.313 59.5021 405.128 57.6858 405.128 55.4452C405.128 53.2046 403.313 51.3882 401.075 51.3882C398.838 51.3882 397.023 53.2046 397.023 55.4452C397.023 57.6858 398.838 59.5021 401.075 59.5021Z" fill="white"/>
<path d="M365.116 342.137C364.522 342.138 363.945 342.334 363.474 342.696C363.003 343.058 362.663 343.565 362.508 344.138L358.144 360.366C358.036 360.767 358.022 361.188 358.103 361.595C358.183 362.002 358.356 362.385 358.608 362.715C358.861 363.044 359.185 363.311 359.557 363.495C359.929 363.679 360.338 363.774 360.752 363.774H443.742C444.173 363.774 444.597 363.671 444.98 363.474C445.363 363.276 445.693 362.99 445.942 362.638C446.192 362.287 446.354 361.881 446.415 361.454C446.476 361.028 446.435 360.592 446.294 360.185L440.684 343.957C440.5 343.426 440.155 342.965 439.697 342.639C439.24 342.313 438.692 342.138 438.131 342.137H365.116Z" fill="#2F2E41"/>
<path d="M586.57 274.972V278.578H215.311L215.59 278.128V274.972H586.57Z" fill="#2F2E41"/>
<path d="M576.215 126.217C611.026 126.217 639.247 97.9621 639.247 63.1083C639.247 28.2546 611.026 0 576.215 0C541.403 0 513.183 28.2546 513.183 63.1083C513.183 97.9621 541.403 126.217 576.215 126.217Z" fill="#1A1A1A"/>
<path d="M602.328 90.6056H550.101C549.146 90.6046 548.231 90.2244 547.555 89.5483C546.88 88.8722 546.5 87.9555 546.5 86.9994V55.4452C546.501 54.4891 546.88 53.5724 547.556 52.8963C548.231 52.2203 549.146 51.84 550.101 51.839H602.328C603.283 51.84 604.198 52.2203 604.874 52.8963C605.549 53.5724 605.929 54.4891 605.93 55.4452V86.9993C605.929 87.9555 605.549 88.8722 604.874 89.5483C604.198 90.2244 603.283 90.6046 602.328 90.6056ZM550.101 55.4452V86.9994H602.331L602.328 55.4452L550.101 55.4452Z" fill="white"/>
<path d="M592.423 55.4452H560.006V41.0204C560.006 30.5725 566.823 22.9895 576.215 22.9895C585.606 22.9895 592.423 30.5725 592.423 41.0204L592.423 55.4452ZM563.608 51.839H588.821V41.0204C588.821 32.5274 583.637 26.5957 576.215 26.5957C568.792 26.5957 563.608 32.5275 563.608 41.0204L563.608 51.839Z" fill="white"/>
<path d="M576.215 73.9269C578.204 73.9269 579.816 72.3123 579.816 70.3207C579.816 68.3291 578.204 66.7145 576.215 66.7145C574.225 66.7145 572.613 68.3291 572.613 70.3207C572.613 72.3123 574.225 73.9269 576.215 73.9269Z" fill="white"/>
<path d="M532.213 201.579H272.64C271.365 201.577 270.144 201.07 269.243 200.167C268.341 199.265 267.835 198.042 267.833 196.766V132.299C267.835 131.023 268.341 129.8 269.243 128.897C270.144 127.995 271.365 127.488 272.64 127.486H532.213C533.487 127.488 534.709 127.995 535.61 128.897C536.511 129.8 537.018 131.023 537.02 132.299V196.766C537.018 198.042 536.511 199.265 535.61 200.167C534.709 201.07 533.487 201.577 532.213 201.579ZM272.64 129.411C271.875 129.412 271.142 129.717 270.601 130.258C270.061 130.799 269.757 131.533 269.756 132.299V196.766C269.757 197.531 270.061 198.265 270.601 198.807C271.142 199.348 271.875 199.653 272.64 199.654H532.213C532.978 199.653 533.711 199.348 534.251 198.807C534.792 198.265 535.096 197.531 535.097 196.766V132.299C535.096 131.533 534.792 130.799 534.251 130.258C533.711 129.717 532.978 129.412 532.213 129.411L272.64 129.411Z" fill="#E6E6E6"/>
<path d="M312.972 181.663C323.786 181.663 332.553 172.886 332.553 162.059C332.553 151.232 323.786 142.454 312.972 142.454C302.158 142.454 293.391 151.232 293.391 162.059C293.391 172.886 302.158 181.663 312.972 181.663Z" fill="#E6E6E6"/>
<path d="M358.194 148.989C357.765 148.989 357.34 149.072 356.944 149.236C356.547 149.4 356.187 149.641 355.883 149.944C355.58 150.248 355.339 150.608 355.175 151.005C355.01 151.402 354.926 151.827 354.926 152.257C354.926 152.686 355.01 153.111 355.175 153.508C355.339 153.905 355.58 154.265 355.883 154.569C356.187 154.872 356.547 155.113 356.944 155.277C357.34 155.441 357.765 155.525 358.194 155.524H512.043C512.909 155.524 513.739 155.18 514.351 154.567C514.963 153.954 515.307 153.123 515.307 152.257C515.307 151.39 514.963 150.559 514.351 149.946C513.739 149.333 512.909 148.989 512.043 148.989H358.194Z" fill="#E6E6E6"/>
<path d="M358.195 168.594C357.329 168.594 356.499 168.938 355.887 169.551C355.275 170.163 354.931 170.994 354.931 171.861C354.931 172.728 355.275 173.559 355.887 174.171C356.499 174.784 357.329 175.128 358.195 175.128H424.396C425.262 175.128 426.092 174.784 426.704 174.171C427.316 173.559 427.66 172.728 427.66 171.861C427.66 170.994 427.316 170.163 426.704 169.551C426.092 168.938 425.262 168.594 424.396 168.594H358.195Z" fill="#E6E6E6"/>
<path d="M214.673 169.915L166.688 195.457L166.081 174.172C181.743 171.555 196.643 166.997 210.421 159.577L215.439 147.164C215.986 145.811 216.875 144.624 218.018 143.719C219.162 142.814 220.521 142.222 221.961 142.002C223.402 141.782 224.876 141.94 226.237 142.462C227.598 142.984 228.8 143.852 229.725 144.979C231.079 146.629 231.755 148.732 231.618 150.863C231.48 152.994 230.539 154.992 228.985 156.454L214.673 169.915Z" fill="#FFB8B8"/>
<path d="M97.4283 317.382C97.0782 316.097 97.0039 314.752 97.2102 313.436C97.4165 312.119 97.8987 310.862 98.6252 309.746L109.166 293.549C111.659 289.718 115.485 286.951 119.9 285.785C124.316 284.619 129.007 285.136 133.063 287.237C128.633 294.787 129.251 301.41 134.593 307.165C126.3 311.219 118.635 316.451 111.835 322.699C110.594 323.546 109.169 324.084 107.678 324.268C106.187 324.452 104.674 324.276 103.264 323.756C101.854 323.236 100.589 322.386 99.5743 321.278C98.5592 320.169 97.8234 318.833 97.4283 317.382Z" fill="#2F2E41"/>
<path d="M216.858 296.205C215.263 298.867 213.011 301.073 210.319 302.613C207.627 304.152 204.585 304.973 201.485 304.997L131.459 305.528L128.422 287.892L159.399 278.77L133.281 258.702L161.829 225.255L213.68 273.641C216.711 276.469 218.68 280.253 219.258 284.36C219.836 288.467 218.989 292.649 216.858 296.205Z" fill="#2F2E41"/>
<path d="M120.526 416.816H104.127C89.4022 315.763 74.4141 214.428 118.704 176.605L170.94 185.119L164.259 229.512L135.104 262.959L120.526 416.816Z" fill="#2F2E41"/>
<path d="M134.942 439.707C133.659 440.058 132.315 440.132 131 439.926C129.686 439.719 128.43 439.237 127.315 438.509L109.508 436.113C105.682 433.617 102.918 429.787 101.753 425.366C100.588 420.945 101.104 416.248 103.202 412.187C110.743 416.622 117.358 416.003 123.106 410.654C127.168 418.865 133.86 418.364 140.252 425.282C141.098 426.525 141.635 427.952 141.819 429.445C142.003 430.938 141.828 432.453 141.308 433.864C140.789 435.275 139.94 436.542 138.833 437.558C137.726 438.575 136.392 439.311 134.942 439.707Z" fill="#2F2E41"/>
<path d="M159.399 109.103L129.03 101.805C134.074 91.468 134.489 79.9659 132.067 67.7498L152.718 67.1416C153.365 82.3328 155.323 96.5251 159.399 109.103Z" fill="#FFB8B8"/>
<path d="M167.746 203.429C145.638 218.512 130.018 203.945 118.097 181.47C119.754 167.717 117.071 151.259 112.104 133.376C109.895 125.488 110.72 117.058 114.416 109.75C118.111 102.441 124.41 96.7855 132.067 93.8993L158.185 104.846C180.362 122.944 184.727 142.549 176.407 163.226L167.746 203.429Z" fill="#D62E6A"/>
<path d="M104.126 124.306L79.8308 137.076L122.956 162.618L128.956 177.437C129.357 178.426 129.552 179.487 129.53 180.554C129.507 181.621 129.268 182.672 128.827 183.644C128.386 184.615 127.752 185.487 126.963 186.205C126.174 186.923 125.248 187.473 124.24 187.821C123.095 188.216 121.873 188.341 120.671 188.185C119.47 188.029 118.32 187.596 117.313 186.921C116.307 186.246 115.469 185.347 114.867 184.294C114.266 183.241 113.915 182.063 113.844 180.852L113.237 170.524L58.4261 152.414C56.5794 151.804 54.8956 150.781 53.5022 149.423C52.1088 148.064 51.0423 146.407 50.3836 144.575C49.4234 141.904 49.3746 138.991 50.2446 136.29C51.1147 133.588 52.8546 131.252 55.192 129.647L99.2674 99.3725L104.126 124.306Z" fill="#FFB8B8"/>
<path d="M128.422 126.738C118.289 122.292 109.075 127.122 97.4452 130.995L95.623 98.7643C107.171 92.6018 118.182 90.9403 128.422 95.7237L128.422 126.738Z" fill="#D62E6A"/>
<path d="M140.544 83.1067C151.252 83.1067 159.934 74.415 159.934 63.6933C159.934 52.9717 151.252 44.28 140.544 44.28C129.835 44.28 121.154 52.9717 121.154 63.6933C121.154 74.415 129.835 83.1067 140.544 83.1067Z" fill="#FFB8B8"/>
<path d="M163.74 61.2439C144.543 63.1264 129.914 59.9829 120.565 51.0323V43.8242H162.111L163.74 61.2439Z" fill="#2F2E41"/>
</svg>
